ISO-10303-21;
HEADER;
FILE_DESCRIPTION (( 'STEP AP203' ),
    '1' );
FILE_NAME ('92217A611_18-8 Stainless Steel Washer for Soft Material.STEP',
    '2022-07-21T04:29:15',
    ( 'Administrator' ),
    ( 'Managed by Terraform' ),
    'SwSTEP 2.0',
    'SolidWorks 2017',
    '' );
FILE_SCHEMA (( 'CONFIG_CONTROL_DESIGN' ));
ENDSEC;

DATA;
#1 = ORIENTED_EDGE ( 'NONE', *, *, #118, .F. ) ;
#2 = CC_DESIGN_PERSON_AND_ORGANIZATION_ASSIGNMENT ( #248, #62, ( #123 ) ) ;
#3 = VERTEX_POINT ( 'NONE', #27 ) ;
#4 = DATE_AND_TIME ( #66, #212 ) ;
#5 = CC_DESIGN_PERSON_AND_ORGANIZATION_ASSIGNMENT ( #124, #200, ( #184 ) ) ;
#6 = DESIGN_CONTEXT ( 'detailed design', #43, 'design' ) ;
#7 = SHAPE_DEFINITION_REPRESENTATION ( #24, #54 ) ;
#8 = CYLINDRICAL_SURFACE ( 'NONE', #207, 1.550000000000000000 ) ;
#9 = LOCAL_TIME ( 23, 29, 15.00000000000000000, #96 ) ;
#10 = CARTESIAN_POINT ( 'NONE',  ( 0.0000000000000000000, 0.0000000000000000000, 0.2999999999999999900 ) ) ;
#11 = CC_DESIGN_PERSON_AND_ORGANIZATION_ASSIGNMENT ( #75, #79, ( #165 ) ) ;
#12 = ORIENTED_EDGE ( 'NONE', *, *, #95, .F. ) ;
#13 = CARTESIAN_POINT ( 'NONE',  ( 0.0000000000000000000, 0.0000000000000000000, -0.2999999999999999900 ) ) ;
#14 = CIRCLE ( 'NONE', #135, 2.950000000000000600 ) ;
#15 = DIRECTION ( 'NONE',  ( -0.0000000000000000000, -0.0000000000000000000, -1.000000000000000000 ) ) ;
#16 = VECTOR ( 'NONE', #29, 1000.000000000000000 ) ;
#17 = COORDINATED_UNIVERSAL_TIME_OFFSET ( 6, 0, .BEHIND. ) ;
#18 = AXIS2_PLACEMENT_3D ( 'NONE', #221, #58, #94 ) ;
#19 = ORIENTED_EDGE ( 'NONE', *, *, #232, .F. ) ;
#20 = FACE_OUTER_BOUND ( 'NONE', #183, .T. ) ;
#21 = DIRECTION ( 'NONE',  ( -1.000000000000000000, 0.0000000000000000000, 0.0000000000000000000 ) ) ;
#22 = DIRECTION ( 'NONE',  ( 0.0000000000000000000, 0.0000000000000000000, 1.000000000000000000 ) ) ;
#23 = PRODUCT_DEFINITION ( 'UNKNOWN', '', #184, #6 ) ;
#24 = PRODUCT_DEFINITION_SHAPE ( 'NONE', 'NONE',  #23 ) ;
#25 = ORIENTED_EDGE ( 'NONE', *, *, #84, .T. ) ;
#26 = CIRCLE ( 'NONE', #222, 1.550000000000000000 ) ;
#27 = CARTESIAN_POINT ( 'NONE',  ( -1.550000000000000000, 0.0000000000000000000, 0.2999999999999999900 ) ) ;
#28 = DIRECTION ( 'NONE',  ( 0.0000000000000000000, 0.0000000000000000000, 1.000000000000000000 ) ) ;
#29 = DIRECTION ( 'NONE',  ( -0.0000000000000000000, -0.0000000000000000000, -1.000000000000000000 ) ) ;
#30 = ORIENTED_EDGE ( 'NONE', *, *, #84, .F. ) ;
#31 = ORIENTED_EDGE ( 'NONE', *, *, #74, .F. ) ;
#32 = DIRECTION ( 'NONE',  ( 1.000000000000000000, 0.0000000000000000000, 0.0000000000000000000 ) ) ;
#33 = CARTESIAN_POINT ( 'NONE',  ( 0.0000000000000000000, 0.0000000000000000000, -0.2999999999999999900 ) ) ;
#34 = CC_DESIGN_APPROVAL ( #89, ( #23 ) ) ;
#35 = VERTEX_POINT ( 'NONE', #199 ) ;
#36 = DIRECTION ( 'NONE',  ( 0.0000000000000000000, 0.0000000000000000000, 1.000000000000000000 ) ) ;
#37 = CIRCLE ( 'NONE', #187, 1.550000000000000000 ) ;
#38 = DIRECTION ( 'NONE',  ( -0.0000000000000000000, -0.0000000000000000000, -1.000000000000000000 ) ) ;
#39 = APPLICATION_PROTOCOL_DEFINITION ( 'international standard', 'config_control_design', 1994, #134 ) ;
#40 = APPROVAL ( #244, 'UNSPECIFIED' ) ;
#41 = MECHANICAL_CONTEXT ( 'NONE', #134, 'mechanical' ) ;
#42 = LOCAL_TIME ( 23, 29, 15.00000000000000000, #92 ) ;
#43 = APPLICATION_CONTEXT ( 'configuration controlled 3d designs of mechanical parts and assemblies' ) ;
#44 = ADVANCED_FACE ( 'NONE', ( #68, #162 ), #116, .T. ) ;
#45 = CALENDAR_DATE ( 2022, 20, 7 ) ;
#46 = ORIENTED_EDGE ( 'NONE', *, *, #118, .T. ) ;
#47 = DIRECTION ( 'NONE',  ( 0.0000000000000000000, 0.0000000000000000000, 1.000000000000000000 ) ) ;
#48 = DIRECTION ( 'NONE',  ( -0.0000000000000000000, -0.0000000000000000000, -1.000000000000000000 ) ) ;
#49 = CC_DESIGN_PERSON_AND_ORGANIZATION_ASSIGNMENT ( #233, #151, ( #184 ) ) ;
#50 = PERSON_AND_ORGANIZATION ( #131, #247 ) ;
#51 = ORIENTED_EDGE ( 'NONE', *, *, #232, .T. ) ;
#52 = AXIS2_PLACEMENT_3D ( 'NONE', #13, #204, #32 ) ;
#53 = PERSON_AND_ORGANIZATION ( #131, #247 ) ;
#54 = ADVANCED_BREP_SHAPE_REPRESENTATION ( '92217A611_18-8 Stainless Steel Washer for Soft Material', ( #197, #198 ), #77 ) ;
#55 = CARTESIAN_POINT ( 'NONE',  ( 0.0000000000000000000, 0.0000000000000000000, 0.2999999999999999900 ) ) ;
#56 = DIRECTION ( 'NONE',  ( -1.000000000000000000, 0.0000000000000000000, 0.0000000000000000000 ) ) ;
#57 = CARTESIAN_POINT ( 'NONE',  ( 0.0000000000000000000, 0.0000000000000000000, 0.2999999999999999900 ) ) ;
#58 = DIRECTION ( 'NONE',  ( 0.0000000000000000000, 0.0000000000000000000, 1.000000000000000000 ) ) ;
#59 = EDGE_LOOP ( 'NONE', ( #150, #51 ) ) ;
#60 = APPROVAL_DATE_TIME ( #80, #40 ) ;
#61 = ORIENTED_EDGE ( 'NONE', *, *, #108, .F. ) ;
#62 = PERSON_AND_ORGANIZATION_ROLE ( 'classification_officer' ) ;
#63 = VERTEX_POINT ( 'NONE', #99 ) ;
#64 = FACE_OUTER_BOUND ( 'NONE', #136, .T. ) ;
#65 = ADVANCED_FACE ( 'NONE', ( #111 ), #224, .T. ) ;
#66 = CALENDAR_DATE ( 2022, 20, 7 ) ;
#67 = DIRECTION ( 'NONE',  ( 1.000000000000000000, 0.0000000000000000000, 0.0000000000000000000 ) ) ;
#68 = FACE_OUTER_BOUND ( 'NONE', #59, .T. ) ;
#69 = ORIENTED_EDGE ( 'NONE', *, *, #102, .T. ) ;
#70 = CC_DESIGN_DATE_AND_TIME_ASSIGNMENT ( #201, #226, ( #123 ) ) ;
#71 = ORIENTED_EDGE ( 'NONE', *, *, #129, .F. ) ;
#72 = LINE ( 'NONE', #83, #110 ) ;
#73 = DIRECTION ( 'NONE',  ( 0.0000000000000000000, 0.0000000000000000000, 1.000000000000000000 ) ) ;
#74 = EDGE_CURVE ( 'NONE', #3, #167, #137, .T. ) ;
#75 = PERSON_AND_ORGANIZATION ( #131, #247 ) ;
#76 = ORIENTED_EDGE ( 'NONE', *, *, #125, .F. ) ;
#77 =( GEOMETRIC_REPRESENTATION_CONTEXT ( 3 ) GLOBAL_UNCERTAINTY_ASSIGNED_CONTEXT ( ( #209 ) ) GLOBAL_UNIT_ASSIGNED_CONTEXT ( ( #82, #193, #219 ) ) REPRESENTATION_CONTEXT ( 'NONE', 'WORKASPACE' ) );
#78 = VECTOR ( 'NONE', #48, 1000.000000000000000 ) ;
#79 = PERSON_AND_ORGANIZATION_ROLE ( 'design_owner' ) ;
#80 = DATE_AND_TIME ( #220, #239 ) ;
#81 = APPROVAL_ROLE ( '' ) ;
#82 =( LENGTH_UNIT ( ) NAMED_UNIT ( * ) SI_UNIT ( .MILLI., .METRE. ) );
#83 = CARTESIAN_POINT ( 'NONE',  ( 2.950000000000000600, 3.612708057484692600E-016, 0.2999999999999999900 ) ) ;
#84 = EDGE_CURVE ( 'NONE', #167, #86, #230, .T. ) ;
#85 = ORIENTED_EDGE ( 'NONE', *, *, #125, .T. ) ;
#86 = VERTEX_POINT ( 'NONE', #229 ) ;
#87 = EDGE_CURVE ( 'NONE', #175, #188, #72, .T. ) ;
#88 = ORIENTED_EDGE ( 'NONE', *, *, #173, .F. ) ;
#89 = APPROVAL ( #174, 'UNSPECIFIED' ) ;
#90 = CARTESIAN_POINT ( 'NONE',  ( 2.950000000000000600, 3.612708057484692600E-016, 0.2999999999999999900 ) ) ;
#91 = CARTESIAN_POINT ( 'NONE',  ( 0.0000000000000000000, 0.0000000000000000000, 0.2999999999999999900 ) ) ;
#92 = COORDINATED_UNIVERSAL_TIME_OFFSET ( 6, 0, .BEHIND. ) ;
#93 = DIRECTION ( 'NONE',  ( 0.0000000000000000000, 0.0000000000000000000, 1.000000000000000000 ) ) ;
#94 = DIRECTION ( 'NONE',  ( 1.000000000000000000, 0.0000000000000000000, 0.0000000000000000000 ) ) ;
#95 = EDGE_CURVE ( 'NONE', #3, #63, #216, .T. ) ;
#96 = COORDINATED_UNIVERSAL_TIME_OFFSET ( 6, 0, .BEHIND. ) ;
#97 = CYLINDRICAL_SURFACE ( 'NONE', #218, 2.950000000000000600 ) ;
#98 = ADVANCED_FACE ( 'NONE', ( #20, #176 ), #206, .F. ) ;
#99 = CARTESIAN_POINT ( 'NONE',  ( -1.550000000000000000, 0.0000000000000000000, -0.2999999999999999900 ) ) ;
#100 = CALENDAR_DATE ( 2022, 20, 7 ) ;
#101 = DATE_TIME_ROLE ( 'creation_date' ) ;
#102 = EDGE_CURVE ( 'NONE', #188, #35, #14, .T. ) ;
#103 = LOCAL_TIME ( 23, 29, 15.00000000000000000, #17 ) ;
#104 = CIRCLE ( 'NONE', #242, 2.950000000000000600 ) ;
#105 = DIRECTION ( 'NONE',  ( 0.0000000000000000000, 0.0000000000000000000, 1.000000000000000000 ) ) ;
#106 = APPROVAL_PERSON_ORGANIZATION ( #192, #40, #223 ) ;
#107 = FACE_OUTER_BOUND ( 'NONE', #152, .T. ) ;
#108 = EDGE_CURVE ( 'NONE', #35, #188, #157, .T. ) ;
#109 = CARTESIAN_POINT ( 'NONE',  ( 0.0000000000000000000, 0.0000000000000000000, -0.2999999999999999900 ) ) ;
#110 = VECTOR ( 'NONE', #245, 1000.000000000000000 ) ;
#111 = FACE_OUTER_BOUND ( 'NONE', #128, .T. ) ;
#112 = APPROVAL_PERSON_ORGANIZATION ( #227, #170, #81 ) ;
#113 = DIRECTION ( 'NONE',  ( 0.0000000000000000000, 0.0000000000000000000, 1.000000000000000000 ) ) ;
#114 = ORIENTED_EDGE ( 'NONE', *, *, #228, .F. ) ;
#115 = VERTEX_POINT ( 'NONE', #120 ) ;
#116 = PLANE ( 'NONE',  #159 ) ;
#117 = CARTESIAN_POINT ( 'NONE',  ( 0.0000000000000000000, 0.0000000000000000000, -0.2999999999999999900 ) ) ;
#118 = EDGE_CURVE ( 'NONE', #63, #86, #37, .T. ) ;
#119 = ORIENTED_EDGE ( 'NONE', *, *, #87, .T. ) ;
#120 = CARTESIAN_POINT ( 'NONE',  ( -2.950000000000000600, 0.0000000000000000000, 0.2999999999999999900 ) ) ;
#121 = LINE ( 'NONE', #185, #240 ) ;
#122 = DIRECTION ( 'NONE',  ( 1.000000000000000000, 0.0000000000000000000, -0.0000000000000000000 ) ) ;
#123 = SECURITY_CLASSIFICATION ( '', '', #138 ) ;
#124 = PERSON_AND_ORGANIZATION ( #131, #247 ) ;
#125 = EDGE_CURVE ( 'NONE', #115, #35, #121, .T. ) ;
#126 = ORIENTED_EDGE ( 'NONE', *, *, #129, .T. ) ;
#127 = CALENDAR_DATE ( 2022, 20, 7 ) ;
#128 = EDGE_LOOP ( 'NONE', ( #19, #119, #69, #76 ) ) ;
#129 = EDGE_CURVE ( 'NONE', #86, #63, #26, .T. ) ;
#130 = DIRECTION ( 'NONE',  ( 1.000000000000000000, 0.0000000000000000000, 0.0000000000000000000 ) ) ;
#131 = PERSON ( 'UNSPECIFIED', 'UNSPECIFIED', 'UNSPECIFIED', ('UNSPECIFIED'), ('UNSPECIFIED'), ('UNSPECIFIED') ) ;
#132 = DIRECTION ( 'NONE',  ( 1.000000000000000000, 0.0000000000000000000, 0.0000000000000000000 ) ) ;
#133 = COORDINATED_UNIVERSAL_TIME_OFFSET ( 6, 0, .BEHIND. ) ;
#134 = APPLICATION_CONTEXT ( 'configuration controlled 3d designs of mechanical parts and assemblies' ) ;
#135 = AXIS2_PLACEMENT_3D ( 'NONE', #33, #47, #182 ) ;
#136 = EDGE_LOOP ( 'NONE', ( #196, #25, #1, #12 ) ) ;
#137 = CIRCLE ( 'NONE', #202, 1.550000000000000000 ) ;
#138 = SECURITY_CLASSIFICATION_LEVEL ( 'unclassified' ) ;
#139 = DATE_AND_TIME ( #45, #103 ) ;
#140 = EDGE_LOOP ( 'NONE', ( #31, #114 ) ) ;
#141 = CYLINDRICAL_SURFACE ( 'NONE', #163, 1.550000000000000000 ) ;
#142 = ADVANCED_FACE ( 'NONE', ( #107 ), #97, .T. ) ;
#143 = DIRECTION ( 'NONE',  ( -1.000000000000000000, 0.0000000000000000000, 0.0000000000000000000 ) ) ;
#144 = CIRCLE ( 'NONE', #180, 1.550000000000000000 ) ;
#145 = CARTESIAN_POINT ( 'NONE',  ( 0.0000000000000000000, 0.0000000000000000000, 0.2999999999999999900 ) ) ;
#146 = COORDINATED_UNIVERSAL_TIME_OFFSET ( 6, 0, .BEHIND. ) ;
#147 = AXIS2_PLACEMENT_3D ( 'NONE', #117, #160, #122 ) ;
#148 = DIRECTION ( 'NONE',  ( 1.000000000000000000, 0.0000000000000000000, 0.0000000000000000000 ) ) ;
#149 = DIRECTION ( 'NONE',  ( 1.000000000000000000, 0.0000000000000000000, 0.0000000000000000000 ) ) ;
#150 = ORIENTED_EDGE ( 'NONE', *, *, #173, .T. ) ;
#151 = PERSON_AND_ORGANIZATION_ROLE ( 'creator' ) ;
#152 = EDGE_LOOP ( 'NONE', ( #238, #88, #85, #231 ) ) ;
#153 = DIRECTION ( 'NONE',  ( 1.000000000000000000, 0.0000000000000000000, -0.0000000000000000000 ) ) ;
#154 = CARTESIAN_POINT ( 'NONE',  ( 0.0000000000000000000, 0.0000000000000000000, 0.2999999999999999900 ) ) ;
#155 = ADVANCED_FACE ( 'NONE', ( #64 ), #8, .F. ) ;
#156 = APPROVAL_DATE_TIME ( #139, #170 ) ;
#157 = CIRCLE ( 'NONE', #52, 2.950000000000000600 ) ;
#158 = CARTESIAN_POINT ( 'NONE',  ( 0.0000000000000000000, 0.0000000000000000000, 0.2999999999999999900 ) ) ;
#159 = AXIS2_PLACEMENT_3D ( 'NONE', #10, #28, #153 ) ;
#160 = DIRECTION ( 'NONE',  ( 0.0000000000000000000, 0.0000000000000000000, 1.000000000000000000 ) ) ;
#161 = ORIENTED_EDGE ( 'NONE', *, *, #95, .T. ) ;
#162 = FACE_BOUND ( 'NONE', #140, .T. ) ;
#163 = AXIS2_PLACEMENT_3D ( 'NONE', #91, #38, #56 ) ;
#164 = DATE_AND_TIME ( #100, #9 ) ;
#165 = PRODUCT ( '92217A611_18-8 Stainless Steel Washer for Soft Material', '92217A611_18-8 Stainless Steel Washer for Soft Material', '', ( #41 ) ) ;
#166 = DIRECTION ( 'NONE',  ( -0.0000000000000000000, -0.0000000000000000000, -1.000000000000000000 ) ) ;
#167 = VERTEX_POINT ( 'NONE', #171 ) ;
#168 = CC_DESIGN_DATE_AND_TIME_ASSIGNMENT ( #4, #101, ( #23 ) ) ;
#169 = CIRCLE ( 'NONE', #18, 2.950000000000000600 ) ;
#170 = APPROVAL ( #203, 'UNSPECIFIED' ) ;
#171 = CARTESIAN_POINT ( 'NONE',  ( 1.550000000000000000, 1.898202538678397500E-016, 0.2999999999999999900 ) ) ;
#172 = CARTESIAN_POINT ( 'NONE',  ( 0.0000000000000000000, 0.0000000000000000000, 0.0000000000000000000 ) ) ;
#173 = EDGE_CURVE ( 'NONE', #115, #175, #104, .T. ) ;
#174 = APPROVAL_STATUS ( 'not_yet_approved' ) ;
#175 = VERTEX_POINT ( 'NONE', #90 ) ;
#176 = FACE_BOUND ( 'NONE', #189, .T. ) ;
#177 = PERSON_AND_ORGANIZATION_ROLE ( 'creator' ) ;
#178 = ADVANCED_FACE ( 'NONE', ( #213 ), #141, .F. ) ;
#179 = APPLICATION_PROTOCOL_DEFINITION ( 'international standard', 'config_control_design', 1994, #43 ) ;
#180 = AXIS2_PLACEMENT_3D ( 'NONE', #57, #93, #194 ) ;
#181 = APPROVAL_PERSON_ORGANIZATION ( #53, #89, #225 ) ;
#182 = DIRECTION ( 'NONE',  ( 1.000000000000000000, 0.0000000000000000000, 0.0000000000000000000 ) ) ;
#183 = EDGE_LOOP ( 'NONE', ( #61, #235 ) ) ;
#184 = PRODUCT_DEFINITION_FORMATION_WITH_SPECIFIED_SOURCE ( 'ANY', '', #165, .NOT_KNOWN. ) ;
#185 = CARTESIAN_POINT ( 'NONE',  ( -2.950000000000000600, 0.0000000000000000000, 0.2999999999999999900 ) ) ;
#186 = CC_DESIGN_APPROVAL ( #170, ( #184 ) ) ;
#187 = AXIS2_PLACEMENT_3D ( 'NONE', #109, #36, #132 ) ;
#188 = VERTEX_POINT ( 'NONE', #237 ) ;
#189 = EDGE_LOOP ( 'NONE', ( #46, #126 ) ) ;
#190 = CARTESIAN_POINT ( 'NONE',  ( 0.0000000000000000000, 0.0000000000000000000, -0.2999999999999999900 ) ) ;
#191 = DIRECTION ( 'NONE',  ( -0.0000000000000000000, -0.0000000000000000000, -1.000000000000000000 ) ) ;
#192 = PERSON_AND_ORGANIZATION ( #131, #247 ) ;
#193 =( NAMED_UNIT ( * ) PLANE_ANGLE_UNIT ( ) SI_UNIT ( $, .RADIAN. ) );
#194 = DIRECTION ( 'NONE',  ( 1.000000000000000000, 0.0000000000000000000, 0.0000000000000000000 ) ) ;
#195 = ORIENTED_EDGE ( 'NONE', *, *, #228, .T. ) ;
#196 = ORIENTED_EDGE ( 'NONE', *, *, #74, .T. ) ;
#197 = MANIFOLD_SOLID_BREP ( 'Boss-Extrude1', #246 ) ;
#198 = AXIS2_PLACEMENT_3D ( 'NONE', #172, #113, #149 ) ;
#199 = CARTESIAN_POINT ( 'NONE',  ( -2.950000000000000600, 0.0000000000000000000, -0.2999999999999999900 ) ) ;
#200 = PERSON_AND_ORGANIZATION_ROLE ( 'design_supplier' ) ;
#201 = DATE_AND_TIME ( #127, #42 ) ;
#202 = AXIS2_PLACEMENT_3D ( 'NONE', #158, #105, #67 ) ;
#203 = APPROVAL_STATUS ( 'not_yet_approved' ) ;
#204 = DIRECTION ( 'NONE',  ( 0.0000000000000000000, 0.0000000000000000000, 1.000000000000000000 ) ) ;
#205 = CARTESIAN_POINT ( 'NONE',  ( 1.550000000000000000, 1.898202538678397500E-016, 0.2999999999999999900 ) ) ;
#206 = PLANE ( 'NONE',  #147 ) ;
#207 = AXIS2_PLACEMENT_3D ( 'NONE', #145, #191, #217 ) ;
#208 = CARTESIAN_POINT ( 'NONE',  ( -1.550000000000000000, 0.0000000000000000000, 0.2999999999999999900 ) ) ;
#209 = UNCERTAINTY_MEASURE_WITH_UNIT (LENGTH_MEASURE( 1.000000000000000100E-005 ), #82, 'distance_accuracy_value', 'NONE');
#210 = APPROVAL_DATE_TIME ( #164, #89 ) ;
#211 = AXIS2_PLACEMENT_3D ( 'NONE', #154, #15, #143 ) ;
#212 = LOCAL_TIME ( 23, 29, 15.00000000000000000, #146 ) ;
#213 = FACE_OUTER_BOUND ( 'NONE', #243, .T. ) ;
#214 = CC_DESIGN_APPROVAL ( #40, ( #123 ) ) ;
#215 = DIRECTION ( 'NONE',  ( -0.0000000000000000000, -0.0000000000000000000, -1.000000000000000000 ) ) ;
#216 = LINE ( 'NONE', #208, #16 ) ;
#217 = DIRECTION ( 'NONE',  ( -1.000000000000000000, 0.0000000000000000000, 0.0000000000000000000 ) ) ;
#218 = AXIS2_PLACEMENT_3D ( 'NONE', #236, #215, #21 ) ;
#219 =( NAMED_UNIT ( * ) SI_UNIT ( $, .STERADIAN. ) SOLID_ANGLE_UNIT ( ) );
#220 = CALENDAR_DATE ( 2022, 20, 7 ) ;
#221 = CARTESIAN_POINT ( 'NONE',  ( 0.0000000000000000000, 0.0000000000000000000, 0.2999999999999999900 ) ) ;
#222 = AXIS2_PLACEMENT_3D ( 'NONE', #190, #73, #130 ) ;
#223 = APPROVAL_ROLE ( '' ) ;
#224 = CYLINDRICAL_SURFACE ( 'NONE', #211, 2.950000000000000600 ) ;
#225 = APPROVAL_ROLE ( '' ) ;
#226 = DATE_TIME_ROLE ( 'classification_date' ) ;
#227 = PERSON_AND_ORGANIZATION ( #131, #247 ) ;
#228 = EDGE_CURVE ( 'NONE', #167, #3, #144, .T. ) ;
#229 = CARTESIAN_POINT ( 'NONE',  ( 1.550000000000000000, 1.898202538678397500E-016, -0.2999999999999999900 ) ) ;
#230 = LINE ( 'NONE', #205, #78 ) ;
#231 = ORIENTED_EDGE ( 'NONE', *, *, #108, .T. ) ;
#232 = EDGE_CURVE ( 'NONE', #175, #115, #169, .T. ) ;
#233 = PERSON_AND_ORGANIZATION ( #131, #247 ) ;
#234 = CC_DESIGN_PERSON_AND_ORGANIZATION_ASSIGNMENT ( #50, #177, ( #23 ) ) ;
#235 = ORIENTED_EDGE ( 'NONE', *, *, #102, .F. ) ;
#236 = CARTESIAN_POINT ( 'NONE',  ( 0.0000000000000000000, 0.0000000000000000000, 0.2999999999999999900 ) ) ;
#237 = CARTESIAN_POINT ( 'NONE',  ( 2.950000000000000600, 3.612708057484692600E-016, -0.2999999999999999900 ) ) ;
#238 = ORIENTED_EDGE ( 'NONE', *, *, #87, .F. ) ;
#239 = LOCAL_TIME ( 23, 29, 15.00000000000000000, #133 ) ;
#240 = VECTOR ( 'NONE', #166, 1000.000000000000000 ) ;
#241 = CC_DESIGN_SECURITY_CLASSIFICATION ( #123, ( #184 ) ) ;
#242 = AXIS2_PLACEMENT_3D ( 'NONE', #55, #22, #148 ) ;
#243 = EDGE_LOOP ( 'NONE', ( #30, #195, #161, #71 ) ) ;
#244 = APPROVAL_STATUS ( 'not_yet_approved' ) ;
#245 = DIRECTION ( 'NONE',  ( -0.0000000000000000000, -0.0000000000000000000, -1.000000000000000000 ) ) ;
#246 = CLOSED_SHELL ( 'NONE', ( #155, #65, #44, #98, #142, #178 ) ) ;
#247 = ORGANIZATION ( 'UNSPECIFIED', 'UNSPECIFIED', '' ) ;
#248 = PERSON_AND_ORGANIZATION ( #131, #247 ) ;
#249 = PRODUCT_RELATED_PRODUCT_CATEGORY ( 'detail', '', ( #165 ) ) ;
ENDSEC;
END-ISO-10303-21;
