ISO-10303-21;
HEADER;
FILE_DESCRIPTION (( 'STEP AP203' ),
    '1' );
FILE_NAME ('95495K65_Adhesive-Back Bumpers.STEP',
    '2023-01-26T20:06:44',
    ( 'Administrator' ),
    ( 'Managed by Terraform' ),
    'SwSTEP 2.0',
    'SolidWorks 2017',
    '' );
FILE_SCHEMA (( 'CONFIG_CONTROL_DESIGN' ));
ENDSEC;

DATA;
#1 = ORIENTED_EDGE ( 'NONE', *, *, #335, .T. ) ;
#2 = AXIS2_PLACEMENT_3D ( 'NONE', #167, #267, #77 ) ;
#3 = PERSON_AND_ORGANIZATION ( #81, #145 ) ;
#4 = DIRECTION ( 'NONE',  ( -0.0000000000000000000, -1.000000000000000000, -0.0000000000000000000 ) ) ;
#5 = CARTESIAN_POINT ( 'NONE',  ( 1.902610387212576000E-017, 0.01916772722885423300, 0.1550985217069713600 ) ) ;
#6 = CARTESIAN_POINT ( 'NONE',  ( 0.0000000000000000000, 0.02110128762985242000, 0.0000000000000000000 ) ) ;
#7 = CIRCLE ( 'NONE', #69, 0.2179999999999999700 ) ;
#8 = CYLINDRICAL_SURFACE ( 'NONE', #205, 0.1560000000000000300 ) ;
#9 = PERSON_AND_ORGANIZATION_ROLE ( 'design_supplier' ) ;
#10 = CC_DESIGN_APPROVAL ( #328, ( #230 ) ) ;
#11 = DIRECTION ( 'NONE',  ( 0.0000000000000000000, 0.0000000000000000000, 1.000000000000000000 ) ) ;
#12 = ORIENTED_EDGE ( 'NONE', *, *, #115, .F. ) ;
#13 = APPROVAL_DATE_TIME ( #25, #76 ) ;
#14 =( CONVERSION_BASED_UNIT ( 'INCH', #214 ) LENGTH_UNIT ( ) NAMED_UNIT ( #182 ) );
#15 = PRODUCT ( '95495K65_Adhesive-Back Bumpers', '95495K65_Adhesive-Back Bumpers', '', ( #347 ) ) ;
#16 = PERSON_AND_ORGANIZATION_ROLE ( 'design_owner' ) ;
#17 = APPLICATION_PROTOCOL_DEFINITION ( 'international standard', 'config_control_design', 1994, #345 ) ;
#18 = CC_DESIGN_DATE_AND_TIME_ASSIGNMENT ( #109, #135, ( #279 ) ) ;
#19 = APPROVAL_STATUS ( 'not_yet_approved' ) ;
#20 = CIRCLE ( 'NONE', #26, 0.1550985217069713600 ) ;
#21 = DIRECTION ( 'NONE',  ( 0.0000000000000000000, 1.000000000000000000, 0.0000000000000000000 ) ) ;
#22 = DIRECTION ( 'NONE',  ( 0.0000000000000000000, 0.0000000000000000000, -1.000000000000000000 ) ) ;
#23 = ADVANCED_FACE ( 'NONE', ( #201 ), #174, .T. ) ;
#24 = ORIENTED_EDGE ( 'NONE', *, *, #94, .F. ) ;
#25 = DATE_AND_TIME ( #197, #269 ) ;
#26 = AXIS2_PLACEMENT_3D ( 'NONE', #333, #4, #232 ) ;
#27 = CIRCLE ( 'NONE', #351, 0.1560000000000000600 ) ;
#28 = ADVANCED_FACE ( 'NONE', ( #304 ), #202, .T. ) ;
#29 = CARTESIAN_POINT ( 'NONE',  ( 0.0000000000000000000, 0.01275000000000000400, -0.1560000000000000600 ) ) ;
#30 = EDGE_CURVE ( 'NONE', #357, #143, #62, .T. ) ;
#31 = ORIENTED_EDGE ( 'NONE', *, *, #302, .F. ) ;
#32 = PRODUCT_DEFINITION_SHAPE ( 'NONE', 'NONE',  #279 ) ;
#33 = DIRECTION ( 'NONE',  ( 0.0000000000000000000, 0.0000000000000000000, -1.000000000000000000 ) ) ;
#34 = CARTESIAN_POINT ( 'NONE',  ( 0.0000000000000000000, 0.02110128762985242000, -0.1541972540313914800 ) ) ;
#35 = CARTESIAN_POINT ( 'NONE',  ( 0.0000000000000000000, 0.0000000000000000000, 0.0000000000000000000 ) ) ;
#36 = TOROIDAL_SURFACE ( 'NONE', #60, 0.1519903942489251300, 0.003119999999999999900 ) ;
#37 = AXIS2_PLACEMENT_3D ( 'NONE', #314, #290, #191 ) ;
#38 = DIRECTION ( 'NONE',  ( -0.0000000000000000000, -1.000000000000000000, -0.0000000000000000000 ) ) ;
#39 = ORIENTED_EDGE ( 'NONE', *, *, #141, .F. ) ;
#40 = APPROVAL_ROLE ( '' ) ;
#41 = CARTESIAN_POINT ( 'NONE',  ( 0.0000000000000000000, 0.01323552653155122800, 0.0000000000000000000 ) ) ;
#42 = CC_DESIGN_PERSON_AND_ORGANIZATION_ASSIGNMENT ( #327, #323, ( #230 ) ) ;
#43 = FACE_OUTER_BOUND ( 'NONE', #239, .T. ) ;
#44 = ORIENTED_EDGE ( 'NONE', *, *, #273, .T. ) ;
#45 = DIRECTION ( 'NONE',  ( 1.000000000000000000, 0.0000000000000000000, -1.224646799147353200E-016 ) ) ;
#46 = ORIENTED_EDGE ( 'NONE', *, *, #105, .F. ) ;
#47 = APPROVAL_PERSON_ORGANIZATION ( #84, #76, #112 ) ;
#48 = AXIS2_PLACEMENT_3D ( 'NONE', #49, #21, #245 ) ;
#49 = CARTESIAN_POINT ( 'NONE',  ( 0.0000000000000000000, 0.02110128762985242000, 0.0000000000000000000 ) ) ;
#50 = FACE_OUTER_BOUND ( 'NONE', #346, .T. ) ;
#51 = DATE_AND_TIME ( #340, #257 ) ;
#52 = VERTEX_POINT ( 'NONE', #82 ) ;
#53 = CC_DESIGN_DATE_AND_TIME_ASSIGNMENT ( #51, #299, ( #185 ) ) ;
#54 = ADVANCED_FACE ( 'NONE', ( #127 ), #8, .T. ) ;
#55 = DIRECTION ( 'NONE',  ( -0.0000000000000000000, -1.000000000000000000, -0.0000000000000000000 ) ) ;
#56 = ORIENTED_EDGE ( 'NONE', *, *, #141, .T. ) ;
#57 = CALENDAR_DATE ( 2023, 26, 1 ) ;
#58 = EDGE_LOOP ( 'NONE', ( #348, #196, #39, #118 ) ) ;
#59 = PLANE ( 'NONE',  #136 ) ;
#60 = AXIS2_PLACEMENT_3D ( 'NONE', #61, #150, #188 ) ;
#61 = CARTESIAN_POINT ( 'NONE',  ( 0.0000000000000000000, 0.01889580131148147600, 0.0000000000000000000 ) ) ;
#62 = CIRCLE ( 'NONE', #48, 0.1541972540313914800 ) ;
#63 = APPROVAL_PERSON_ORGANIZATION ( #225, #328, #40 ) ;
#64 = ORIENTED_EDGE ( 'NONE', *, *, #302, .T. ) ;
#65 = DIRECTION ( 'NONE',  ( 0.0000000000000000000, 0.0000000000000000000, -1.000000000000000000 ) ) ;
#66 = EDGE_CURVE ( 'NONE', #192, #228, #353, .T. ) ;
#67 = ORIENTED_EDGE ( 'NONE', *, *, #335, .F. ) ;
#68 = ADVANCED_FACE ( 'NONE', ( #71 ), #217, .F. ) ;
#69 = AXIS2_PLACEMENT_3D ( 'NONE', #93, #186, #284 ) ;
#70 =( NAMED_UNIT ( * ) PLANE_ANGLE_UNIT ( ) SI_UNIT ( $, .RADIAN. ) );
#71 = FACE_OUTER_BOUND ( 'NONE', #326, .T. ) ;
#72 = DIRECTION ( 'NONE',  ( -0.0000000000000000000, -1.000000000000000000, -0.0000000000000000000 ) ) ;
#73 = LOCAL_TIME ( 14, 6, 44.00000000000000000, #175 ) ;
#74 = DIRECTION ( 'NONE',  ( -1.000000000000000000, 0.0000000000000000000, 0.0000000000000000000 ) ) ;
#75 = APPROVAL_STATUS ( 'not_yet_approved' ) ;
#76 = APPROVAL ( #19, 'UNSPECIFIED' ) ;
#77 = DIRECTION ( 'NONE',  ( 0.0000000000000000000, 0.0000000000000000000, 1.000000000000000000 ) ) ;
#78 = VECTOR ( 'NONE', #168, 39.37007874015748100 ) ;
#79 = DIRECTION ( 'NONE',  ( -1.224646799147349800E-016, 0.0000000000000000000, -1.000000000000000000 ) ) ;
#80 = ORIENTED_EDGE ( 'NONE', *, *, #99, .T. ) ;
#81 = PERSON ( 'UNSPECIFIED', 'UNSPECIFIED', 'UNSPECIFIED', ('UNSPECIFIED'), ('UNSPECIFIED'), ('UNSPECIFIED') ) ;
#82 = CARTESIAN_POINT ( 'NONE',  ( 0.0000000000000000000, 0.01916772722885423300, -0.1550985217069713600 ) ) ;
#83 = VERTEX_POINT ( 'NONE', #317 ) ;
#84 = PERSON_AND_ORGANIZATION ( #81, #145 ) ;
#85 = AXIS2_PLACEMENT_3D ( 'NONE', #35, #121, #234 ) ;
#86 = ADVANCED_FACE ( 'NONE', ( #266 ), #235, .T. ) ;
#87 = FACE_OUTER_BOUND ( 'NONE', #341, .T. ) ;
#88 = EDGE_LOOP ( 'NONE', ( #46, #221, #44, #162 ) ) ;
#89 = CARTESIAN_POINT ( 'NONE',  ( 0.0000000000000000000, 0.0000000000000000000, 0.0000000000000000000 ) ) ;
#90 = AXIS2_PLACEMENT_3D ( 'NONE', #41, #343, #318 ) ;
#91 = ORIENTED_EDGE ( 'NONE', *, *, #99, .F. ) ;
#92 = SHAPE_DEFINITION_REPRESENTATION ( #32, #100 ) ;
#93 = CARTESIAN_POINT ( 'NONE',  ( 0.0000000000000000000, -0.1329999999999999800, 0.0000000000000000000 ) ) ;
#94 = EDGE_CURVE ( 'NONE', #293, #83, #300, .T. ) ;
#95 = PRODUCT_RELATED_PRODUCT_CATEGORY ( 'detail', '', ( #15 ) ) ;
#96 = CIRCLE ( 'NONE', #272, 0.1560000000000000000 ) ;
#97 = ORIENTED_EDGE ( 'NONE', *, *, #344, .T. ) ;
#98 = EDGE_CURVE ( 'NONE', #204, #228, #286, .T. ) ;
#99 = EDGE_CURVE ( 'NONE', #357, #231, #199, .T. ) ;
#100 = ADVANCED_BREP_SHAPE_REPRESENTATION ( '95495K65_Adhesive-Back Bumpers', ( #288, #223 ), #158 ) ;
#101 = ORIENTED_EDGE ( 'NONE', *, *, #247, .T. ) ;
#102 = COORDINATED_UNIVERSAL_TIME_OFFSET ( 6, 0, .BEHIND. ) ;
#103 = CARTESIAN_POINT ( 'NONE',  ( 0.0000000000000000000, 0.08499999999999997800, -1.334865011070614800E-017 ) ) ;
#104 = CARTESIAN_POINT ( 'NONE',  ( 0.0000000000000000000, 0.0000000000000000000, 0.0000000000000000000 ) ) ;
#105 = EDGE_CURVE ( 'NONE', #231, #192, #189, .T. ) ;
#106 = DIRECTION ( 'NONE',  ( -1.224646799147354200E-016, 0.0000000000000000000, -1.000000000000000000 ) ) ;
#107 = APPROVAL_ROLE ( '' ) ;
#108 = LINE ( 'NONE', #193, #116 ) ;
#109 = DATE_AND_TIME ( #277, #331 ) ;
#110 = CARTESIAN_POINT ( 'NONE',  ( 1.861345498180904500E-017, 0.01889580131148147600, 0.1519903942489251300 ) ) ;
#111 = PERSON_AND_ORGANIZATION_ROLE ( 'classification_officer' ) ;
#112 = APPROVAL_ROLE ( '' ) ;
#113 = ORIENTED_EDGE ( 'NONE', *, *, #254, .F. ) ;
#114 = AXIS2_PLACEMENT_3D ( 'NONE', #142, #325, #222 ) ;
#115 = EDGE_CURVE ( 'NONE', #52, #231, #20, .T. ) ;
#116 = VECTOR ( 'NONE', #160, 39.37007874015747400 ) ;
#117 = CC_DESIGN_SECURITY_CLASSIFICATION ( #185, ( #230 ) ) ;
#118 = ORIENTED_EDGE ( 'NONE', *, *, #298, .F. ) ;
#119 = COORDINATED_UNIVERSAL_TIME_OFFSET ( 6, 0, .BEHIND. ) ;
#120 = DIRECTION ( 'NONE',  ( 0.0000000000000000000, 0.0000000000000000000, -1.000000000000000000 ) ) ;
#121 = DIRECTION ( 'NONE',  ( -0.0000000000000000000, -1.000000000000000000, -0.0000000000000000000 ) ) ;
#122 = CARTESIAN_POINT ( 'NONE',  ( 1.898202538678397300E-017, 0.02029383549249463500, 0.1550000000000000000 ) ) ;
#123 = AXIS2_PLACEMENT_3D ( 'NONE', #270, #265, #250 ) ;
#124 = ADVANCED_FACE ( 'NONE', ( #307 ), #36, .T. ) ;
#125 = VECTOR ( 'NONE', #184, 39.37007874015747400 ) ;
#126 = CARTESIAN_POINT ( 'NONE',  ( 0.0000000000000000000, -0.1329999999999999800, 0.0000000000000000000 ) ) ;
#127 = FACE_OUTER_BOUND ( 'NONE', #58, .T. ) ;
#128 = COORDINATED_UNIVERSAL_TIME_OFFSET ( 6, 0, .BEHIND. ) ;
#129 = DIRECTION ( 'NONE',  ( 1.000000000000000000, 0.0000000000000000000, -1.224646799147353200E-016 ) ) ;
#130 = AXIS2_PLACEMENT_3D ( 'NONE', #180, #55, #120 ) ;
#131 = DIRECTION ( 'NONE',  ( 0.0000000000000000000, 0.0000000000000000000, 1.000000000000000000 ) ) ;
#132 = CARTESIAN_POINT ( 'NONE',  ( 0.0000000000000000000, 0.02029383549249463500, 0.0000000000000000000 ) ) ;
#133 = CIRCLE ( 'NONE', #268, 0.003120000000000003000 ) ;
#134 = CARTESIAN_POINT ( 'NONE',  ( 0.0000000000000000000, 0.01889580131148147600, -0.1519903942489251300 ) ) ;
#135 = DATE_TIME_ROLE ( 'creation_date' ) ;
#136 = AXIS2_PLACEMENT_3D ( 'NONE', #153, #154, #332 ) ;
#137 = AXIS2_PLACEMENT_3D ( 'NONE', #324, #295, #319 ) ;
#138 = DESIGN_CONTEXT ( 'detailed design', #218, 'design' ) ;
#139 = ORIENTED_EDGE ( 'NONE', *, *, #105, .T. ) ;
#140 = PERSON_AND_ORGANIZATION ( #81, #145 ) ;
#141 = EDGE_CURVE ( 'NONE', #308, #83, #220, .T. ) ;
#142 = CARTESIAN_POINT ( 'NONE',  ( 0.0000000000000000000, -0.1329999999999999800, 0.0000000000000000000 ) ) ;
#143 = VERTEX_POINT ( 'NONE', #34 ) ;
#144 = AXIS2_PLACEMENT_3D ( 'NONE', #126, #210, #65 ) ;
#145 = ORGANIZATION ( 'UNSPECIFIED', 'UNSPECIFIED', '' ) ;
#146 = ORIENTED_EDGE ( 'NONE', *, *, #203, .F. ) ;
#147 = ADVANCED_FACE ( 'NONE', ( #208 ), #255, .T. ) ;
#148 = ORIENTED_EDGE ( 'NONE', *, *, #240, .T. ) ;
#149 = EDGE_CURVE ( 'NONE', #143, #357, #322, .T. ) ;
#150 = DIRECTION ( 'NONE',  ( -0.0000000000000000000, -1.000000000000000000, -0.0000000000000000000 ) ) ;
#151 = DIRECTION ( 'NONE',  ( 0.0000000000000000000, 0.0000000000000000000, -1.000000000000000000 ) ) ;
#152 = ORIENTED_EDGE ( 'NONE', *, *, #66, .F. ) ;
#153 = CARTESIAN_POINT ( 'NONE',  ( 0.0000000000000000000, 0.0000000000000000000, 0.0000000000000000000 ) ) ;
#154 = DIRECTION ( 'NONE',  ( 0.0000000000000000000, 1.000000000000000000, 0.0000000000000000000 ) ) ;
#155 = CARTESIAN_POINT ( 'NONE',  ( 0.0000000000000000000, 0.01275000000000000400, 0.0000000000000000000 ) ) ;
#156 = CIRCLE ( 'NONE', #213, 0.1550985217069713600 ) ;
#157 = ORIENTED_EDGE ( 'NONE', *, *, #260, .F. ) ;
#158 =( GEOMETRIC_REPRESENTATION_CONTEXT ( 3 ) GLOBAL_UNCERTAINTY_ASSIGNED_CONTEXT ( ( #172 ) ) GLOBAL_UNIT_ASSIGNED_CONTEXT ( ( #14, #70, #320 ) ) REPRESENTATION_CONTEXT ( 'NONE', 'WORKASPACE' ) );
#159 = ADVANCED_FACE ( 'NONE', ( #87 ), #177, .T. ) ;
#160 = DIRECTION ( 'NONE',  ( 0.0000000000000000000, -0.9961946980917465400, -0.08715574274764785500 ) ) ;
#161 = CARTESIAN_POINT ( 'NONE',  ( 0.0000000000000000000, -0.1329999999999999800, 0.0000000000000000000 ) ) ;
#162 = ORIENTED_EDGE ( 'NONE', *, *, #306, .T. ) ;
#163 = CALENDAR_DATE ( 2023, 26, 1 ) ;
#164 = DIRECTION ( 'NONE',  ( 1.000000000000000000, 0.0000000000000000000, 0.0000000000000000000 ) ) ;
#165 = CC_DESIGN_PERSON_AND_ORGANIZATION_ASSIGNMENT ( #3, #9, ( #230 ) ) ;
#166 = DIRECTION ( 'NONE',  ( -1.000000000000000000, 0.0000000000000000000, 0.0000000000000000000 ) ) ;
#167 = CARTESIAN_POINT ( 'NONE',  ( 0.0000000000000000000, 0.01323552653155122800, -0.1561194319365175600 ) ) ;
#168 = DIRECTION ( 'NONE',  ( -0.0000000000000000000, -1.000000000000000000, -0.0000000000000000000 ) ) ;
#169 = FACE_OUTER_BOUND ( 'NONE', #178, .T. ) ;
#170 = ORIENTED_EDGE ( 'NONE', *, *, #30, .T. ) ;
#171 = DIRECTION ( 'NONE',  ( -0.0000000000000000000, -1.000000000000000000, -0.0000000000000000000 ) ) ;
#172 = UNCERTAINTY_MEASURE_WITH_UNIT (LENGTH_MEASURE( 1.000000000000000100E-005 ), #14, 'distance_accuracy_value', 'NONE');
#173 = AXIS2_PLACEMENT_3D ( 'NONE', #294, #129, #106 ) ;
#174 = SPHERICAL_SURFACE ( 'NONE', #114, 0.2179999999999999700 ) ;
#175 = COORDINATED_UNIVERSAL_TIME_OFFSET ( 6, 0, .BEHIND. ) ;
#176 = CLOSED_SHELL ( 'NONE', ( #124, #68, #54, #207, #23, #229, #147, #86, #159, #263, #28 ) ) ;
#177 = CYLINDRICAL_SURFACE ( 'NONE', #310, 0.1560000000000000300 ) ;
#178 = EDGE_LOOP ( 'NONE', ( #252, #139, #305, #274 ) ) ;
#179 = AXIS2_PLACEMENT_3D ( 'NONE', #110, #45, #79 ) ;
#180 = CARTESIAN_POINT ( 'NONE',  ( 0.0000000000000000000, 0.02029383549249463500, 0.0000000000000000000 ) ) ;
#181 = EDGE_LOOP ( 'NONE', ( #329, #80, #12, #31 ) ) ;
#182 = DIMENSIONAL_EXPONENTS ( 1.000000000000000000, 0.0000000000000000000, 0.0000000000000000000, 0.0000000000000000000, 0.0000000000000000000, 0.0000000000000000000, 0.0000000000000000000 ) ;
#183 = APPROVAL_DATE_TIME ( #241, #251 ) ;
#184 = DIRECTION ( 'NONE',  ( 1.067350013832171000E-017, -0.9961946980917465400, 0.08715574274764785500 ) ) ;
#185 = SECURITY_CLASSIFICATION ( '', '', #301 ) ;
#186 = DIRECTION ( 'NONE',  ( 1.000000000000000000, 0.0000000000000000000, -1.224646799147353200E-016 ) ) ;
#187 = DIRECTION ( 'NONE',  ( -0.0000000000000000000, -1.000000000000000000, -0.0000000000000000000 ) ) ;
#188 = DIRECTION ( 'NONE',  ( 0.0000000000000000000, 0.0000000000000000000, -1.000000000000000000 ) ) ;
#189 = LINE ( 'NONE', #122, #125 ) ;
#190 = DIRECTION ( 'NONE',  ( 0.0000000000000000000, 0.0000000000000000000, -1.000000000000000000 ) ) ;
#191 = DIRECTION ( 'NONE',  ( 0.0000000000000000000, 0.0000000000000000000, 1.000000000000000000 ) ) ;
#192 = VERTEX_POINT ( 'NONE', #358 ) ;
#193 = CARTESIAN_POINT ( 'NONE',  ( 0.0000000000000000000, 0.02029383549249463500, -0.1550000000000000000 ) ) ;
#194 = CIRCLE ( 'NONE', #283, 0.1560000000000000600 ) ;
#195 = CC_DESIGN_PERSON_AND_ORGANIZATION_ASSIGNMENT ( #200, #16, ( #15 ) ) ;
#196 = ORIENTED_EDGE ( 'NONE', *, *, #94, .T. ) ;
#197 = CALENDAR_DATE ( 2023, 26, 1 ) ;
#198 = AXIS2_PLACEMENT_3D ( 'NONE', #354, #352, #303 ) ;
#199 = CIRCLE ( 'NONE', #179, 0.003120000000000003000 ) ;
#200 = PERSON_AND_ORGANIZATION ( #81, #145 ) ;
#201 = FACE_OUTER_BOUND ( 'NONE', #261, .T. ) ;
#202 = TOROIDAL_SURFACE ( 'NONE', #198, 0.1519903942489251300, 0.003119999999999999900 ) ;
#203 = EDGE_CURVE ( 'NONE', #204, #293, #194, .T. ) ;
#204 = VERTEX_POINT ( 'NONE', #29 ) ;
#205 = AXIS2_PLACEMENT_3D ( 'NONE', #350, #171, #22 ) ;
#206 = DIRECTION ( 'NONE',  ( 0.0000000000000000000, 0.0000000000000000000, -1.000000000000000000 ) ) ;
#207 = ADVANCED_FACE ( 'NONE', ( #169 ), #356, .T. ) ;
#208 = FACE_OUTER_BOUND ( 'NONE', #281, .T. ) ;
#209 = APPROVAL_DATE_TIME ( #275, #328 ) ;
#210 = DIRECTION ( 'NONE',  ( 1.000000000000000000, 0.0000000000000000000, 0.0000000000000000000 ) ) ;
#211 = DIRECTION ( 'NONE',  ( -0.0000000000000000000, -1.000000000000000000, -0.0000000000000000000 ) ) ;
#212 = ORIENTED_EDGE ( 'NONE', *, *, #240, .F. ) ;
#213 = AXIS2_PLACEMENT_3D ( 'NONE', #289, #38, #215 ) ;
#214 = LENGTH_MEASURE_WITH_UNIT ( LENGTH_MEASURE( 0.02539999999999999900 ), #242 );
#215 = DIRECTION ( 'NONE',  ( 0.0000000000000000000, 0.0000000000000000000, 1.000000000000000000 ) ) ;
#216 = APPROVAL_STATUS ( 'not_yet_approved' ) ;
#217 = TOROIDAL_SURFACE ( 'NONE', #123, 0.1561194319365175600, 0.0005000000000000000100 ) ;
#218 = APPLICATION_CONTEXT ( 'configuration controlled 3d designs of mechanical parts and assemblies' ) ;
#219 = CC_DESIGN_PERSON_AND_ORGANIZATION_ASSIGNMENT ( #262, #111, ( #185 ) ) ;
#220 = CIRCLE ( 'NONE', #85, 0.1560000000000000000 ) ;
#221 = ORIENTED_EDGE ( 'NONE', *, *, #260, .T. ) ;
#222 = DIRECTION ( 'NONE',  ( 0.0000000000000000000, 0.0000000000000000000, -1.000000000000000000 ) ) ;
#223 = AXIS2_PLACEMENT_3D ( 'NONE', #104, #131, #164 ) ;
#224 = ORIENTED_EDGE ( 'NONE', *, *, #98, .F. ) ;
#225 = PERSON_AND_ORGANIZATION ( #81, #145 ) ;
#226 = ORIENTED_EDGE ( 'NONE', *, *, #306, .F. ) ;
#227 = LINE ( 'NONE', #342, #78 ) ;
#228 = VERTEX_POINT ( 'NONE', #311 ) ;
#229 = ADVANCED_FACE ( 'NONE', ( #50 ), #59, .F. ) ;
#230 = PRODUCT_DEFINITION_FORMATION_WITH_SPECIFIED_SOURCE ( 'ANY', '', #15, .NOT_KNOWN. ) ;
#231 = VERTEX_POINT ( 'NONE', #5 ) ;
#232 = DIRECTION ( 'NONE',  ( 0.0000000000000000000, 0.0000000000000000000, 1.000000000000000000 ) ) ;
#233 = CC_DESIGN_APPROVAL ( #76, ( #185 ) ) ;
#234 = DIRECTION ( 'NONE',  ( 0.0000000000000000000, 0.0000000000000000000, -1.000000000000000000 ) ) ;
#235 = CONICAL_SURFACE ( 'NONE', #330, 0.1550000000000000000, 0.08726646259970610700 ) ;
#236 = ORIENTED_EDGE ( 'NONE', *, *, #247, .F. ) ;
#237 = DIRECTION ( 'NONE',  ( 0.0000000000000000000, 0.0000000000000000000, -1.000000000000000000 ) ) ;
#238 = DIRECTION ( 'NONE',  ( 0.0000000000000000000, 0.0000000000000000000, 1.000000000000000000 ) ) ;
#239 = EDGE_LOOP ( 'NONE', ( #67, #146, #249, #152 ) ) ;
#240 = EDGE_CURVE ( 'NONE', #287, #357, #7, .T. ) ;
#241 = DATE_AND_TIME ( #163, #349 ) ;
#242 =( LENGTH_UNIT ( ) NAMED_UNIT ( * ) SI_UNIT ( $, .METRE. ) );
#243 = CARTESIAN_POINT ( 'NONE',  ( 1.910449006669871400E-017, 0.0000000000000000000, 0.1560000000000000300 ) ) ;
#244 = CARTESIAN_POINT ( 'NONE',  ( 0.0000000000000000000, 0.0000000000000000000, -0.1560000000000000000 ) ) ;
#245 = DIRECTION ( 'NONE',  ( 0.0000000000000000000, 0.0000000000000000000, -1.000000000000000000 ) ) ;
#246 = APPLICATION_PROTOCOL_DEFINITION ( 'international standard', 'config_control_design', 1994, #218 ) ;
#247 = EDGE_CURVE ( 'NONE', #293, #204, #27, .T. ) ;
#248 = CIRCLE ( 'NONE', #355, 0.2179999999999999700 ) ;
#249 = ORIENTED_EDGE ( 'NONE', *, *, #98, .T. ) ;
#250 = DIRECTION ( 'NONE',  ( 0.0000000000000000000, 0.0000000000000000000, -1.000000000000000000 ) ) ;
#251 = APPROVAL ( #75, 'UNSPECIFIED' ) ;
#252 = ORIENTED_EDGE ( 'NONE', *, *, #115, .T. ) ;
#253 = COORDINATED_UNIVERSAL_TIME_OFFSET ( 6, 0, .BEHIND. ) ;
#254 = EDGE_CURVE ( 'NONE', #83, #308, #96, .T. ) ;
#255 = SPHERICAL_SURFACE ( 'NONE', #144, 0.2179999999999999700 ) ;
#256 = EDGE_LOOP ( 'NONE', ( #91, #278, #64, #157 ) ) ;
#257 = LOCAL_TIME ( 14, 6, 44.00000000000000000, #102 ) ;
#258 = CARTESIAN_POINT ( 'NONE',  ( 0.0000000000000000000, 0.0000000000000000000, 0.0000000000000000000 ) ) ;
#259 = TOROIDAL_SURFACE ( 'NONE', #90, 0.1561194319365175600, 0.0005000000000000000100 ) ;
#260 = EDGE_CURVE ( 'NONE', #231, #52, #156, .T. ) ;
#261 = EDGE_LOOP ( 'NONE', ( #339, #148, #170 ) ) ;
#262 = PERSON_AND_ORGANIZATION ( #81, #145 ) ;
#263 = ADVANCED_FACE ( 'NONE', ( #43 ), #259, .F. ) ;
#264 = CARTESIAN_POINT ( 'NONE',  ( 1.910449006669871700E-017, 0.01275000000000000400, 0.1560000000000000600 ) ) ;
#265 = DIRECTION ( 'NONE',  ( -0.0000000000000000000, -1.000000000000000000, -0.0000000000000000000 ) ) ;
#266 = FACE_OUTER_BOUND ( 'NONE', #88, .T. ) ;
#267 = DIRECTION ( 'NONE',  ( -1.000000000000000000, 0.0000000000000000000, 0.0000000000000000000 ) ) ;
#268 = AXIS2_PLACEMENT_3D ( 'NONE', #134, #74, #238 ) ;
#269 = LOCAL_TIME ( 14, 6, 44.00000000000000000, #119 ) ;
#270 = CARTESIAN_POINT ( 'NONE',  ( 0.0000000000000000000, 0.01323552653155122800, 0.0000000000000000000 ) ) ;
#271 = VECTOR ( 'NONE', #72, 39.37007874015748100 ) ;
#272 = AXIS2_PLACEMENT_3D ( 'NONE', #89, #280, #206 ) ;
#273 = EDGE_CURVE ( 'NONE', #52, #228, #108, .T. ) ;
#274 = ORIENTED_EDGE ( 'NONE', *, *, #273, .F. ) ;
#275 = DATE_AND_TIME ( #57, #73 ) ;
#276 = ORIENTED_EDGE ( 'NONE', *, *, #254, .T. ) ;
#277 = CALENDAR_DATE ( 2023, 26, 1 ) ;
#278 = ORIENTED_EDGE ( 'NONE', *, *, #149, .F. ) ;
#279 = PRODUCT_DEFINITION ( 'UNKNOWN', '', #230, #138 ) ;
#280 = DIRECTION ( 'NONE',  ( -0.0000000000000000000, -1.000000000000000000, -0.0000000000000000000 ) ) ;
#281 = EDGE_LOOP ( 'NONE', ( #212, #97, #315 ) ) ;
#282 = PERSON_AND_ORGANIZATION ( #81, #145 ) ;
#283 = AXIS2_PLACEMENT_3D ( 'NONE', #336, #187, #151 ) ;
#284 = DIRECTION ( 'NONE',  ( -1.224646799147353200E-016, 0.0000000000000000000, -1.000000000000000000 ) ) ;
#285 = DIRECTION ( 'NONE',  ( 0.0000000000000000000, 1.000000000000000000, 0.0000000000000000000 ) ) ;
#286 = CIRCLE ( 'NONE', #2, 0.0005000000000000015300 ) ;
#287 = VERTEX_POINT ( 'NONE', #103 ) ;
#288 = MANIFOLD_SOLID_BREP ( 'Imported1', #176 ) ;
#289 = CARTESIAN_POINT ( 'NONE',  ( 0.0000000000000000000, 0.01916772722885423300, 0.0000000000000000000 ) ) ;
#290 = DIRECTION ( 'NONE',  ( 0.0000000000000000000, 1.000000000000000000, 0.0000000000000000000 ) ) ;
#291 = DIRECTION ( 'NONE',  ( -0.0000000000000000000, -1.000000000000000000, -0.0000000000000000000 ) ) ;
#292 = CC_DESIGN_PERSON_AND_ORGANIZATION_ASSIGNMENT ( #282, #297, ( #279 ) ) ;
#293 = VERTEX_POINT ( 'NONE', #264 ) ;
#294 = CARTESIAN_POINT ( 'NONE',  ( 1.911911626057593300E-017, 0.01323552653155122800, 0.1561194319365175600 ) ) ;
#295 = DIRECTION ( 'NONE',  ( 0.0000000000000000000, 1.000000000000000000, 0.0000000000000000000 ) ) ;
#296 = CARTESIAN_POINT ( 'NONE',  ( 1.888371735868548600E-017, 0.02110128762985242000, 0.1541972540313914800 ) ) ;
#297 = PERSON_AND_ORGANIZATION_ROLE ( 'creator' ) ;
#298 = EDGE_CURVE ( 'NONE', #204, #308, #227, .T. ) ;
#299 = DATE_TIME_ROLE ( 'classification_date' ) ;
#300 = LINE ( 'NONE', #243, #271 ) ;
#301 = SECURITY_CLASSIFICATION_LEVEL ( 'unclassified' ) ;
#302 = EDGE_CURVE ( 'NONE', #143, #52, #133, .T. ) ;
#303 = DIRECTION ( 'NONE',  ( 0.0000000000000000000, 0.0000000000000000000, -1.000000000000000000 ) ) ;
#304 = FACE_OUTER_BOUND ( 'NONE', #256, .T. ) ;
#305 = ORIENTED_EDGE ( 'NONE', *, *, #66, .T. ) ;
#306 = EDGE_CURVE ( 'NONE', #228, #192, #312, .T. ) ;
#307 = FACE_OUTER_BOUND ( 'NONE', #181, .T. ) ;
#308 = VERTEX_POINT ( 'NONE', #244 ) ;
#309 = ORIENTED_EDGE ( 'NONE', *, *, #298, .T. ) ;
#310 = AXIS2_PLACEMENT_3D ( 'NONE', #258, #338, #190 ) ;
#311 = CARTESIAN_POINT ( 'NONE',  ( 0.0000000000000000000, 0.01319194866017742200, -0.1556213345874717100 ) ) ;
#312 = CIRCLE ( 'NONE', #37, 0.1556213345874716500 ) ;
#313 = AXIS2_PLACEMENT_3D ( 'NONE', #6, #285, #33 ) ;
#314 = CARTESIAN_POINT ( 'NONE',  ( 0.0000000000000000000, 0.01319194866017742200, 0.0000000000000000000 ) ) ;
#315 = ORIENTED_EDGE ( 'NONE', *, *, #149, .T. ) ;
#316 = APPROVAL_PERSON_ORGANIZATION ( #140, #251, #107 ) ;
#317 = CARTESIAN_POINT ( 'NONE',  ( 1.910449006669871400E-017, 0.0000000000000000000, 0.1560000000000000000 ) ) ;
#318 = DIRECTION ( 'NONE',  ( 0.0000000000000000000, 0.0000000000000000000, -1.000000000000000000 ) ) ;
#319 = DIRECTION ( 'NONE',  ( 0.0000000000000000000, 0.0000000000000000000, 1.000000000000000000 ) ) ;
#320 =( NAMED_UNIT ( * ) SI_UNIT ( $, .STERADIAN. ) SOLID_ANGLE_UNIT ( ) );
#321 = DIRECTION ( 'NONE',  ( 0.0000000000000000000, 0.0000000000000000000, -1.000000000000000000 ) ) ;
#322 = CIRCLE ( 'NONE', #313, 0.1541972540313914800 ) ;
#323 = PERSON_AND_ORGANIZATION_ROLE ( 'creator' ) ;
#324 = CARTESIAN_POINT ( 'NONE',  ( 0.0000000000000000000, 0.01319194866017742200, 0.0000000000000000000 ) ) ;
#325 = DIRECTION ( 'NONE',  ( 1.000000000000000000, 0.0000000000000000000, 0.0000000000000000000 ) ) ;
#326 = EDGE_LOOP ( 'NONE', ( #236, #1, #226, #224 ) ) ;
#327 = PERSON_AND_ORGANIZATION ( #81, #145 ) ;
#328 = APPROVAL ( #216, 'UNSPECIFIED' ) ;
#329 = ORIENTED_EDGE ( 'NONE', *, *, #30, .F. ) ;
#330 = AXIS2_PLACEMENT_3D ( 'NONE', #132, #291, #321 ) ;
#331 = LOCAL_TIME ( 14, 6, 44.00000000000000000, #128 ) ;
#332 = DIRECTION ( 'NONE',  ( 0.0000000000000000000, -0.0000000000000000000, 1.000000000000000000 ) ) ;
#333 = CARTESIAN_POINT ( 'NONE',  ( 0.0000000000000000000, 0.01916772722885423300, 0.0000000000000000000 ) ) ;
#334 = CIRCLE ( 'NONE', #173, 0.0005000000000000015300 ) ;
#335 = EDGE_CURVE ( 'NONE', #293, #192, #334, .T. ) ;
#336 = CARTESIAN_POINT ( 'NONE',  ( 0.0000000000000000000, 0.01275000000000000400, 0.0000000000000000000 ) ) ;
#337 = CC_DESIGN_APPROVAL ( #251, ( #279 ) ) ;
#338 = DIRECTION ( 'NONE',  ( -0.0000000000000000000, -1.000000000000000000, -0.0000000000000000000 ) ) ;
#339 = ORIENTED_EDGE ( 'NONE', *, *, #344, .F. ) ;
#340 = CALENDAR_DATE ( 2023, 26, 1 ) ;
#341 = EDGE_LOOP ( 'NONE', ( #24, #101, #309, #113 ) ) ;
#342 = CARTESIAN_POINT ( 'NONE',  ( 0.0000000000000000000, 0.0000000000000000000, -0.1560000000000000300 ) ) ;
#343 = DIRECTION ( 'NONE',  ( -0.0000000000000000000, -1.000000000000000000, -0.0000000000000000000 ) ) ;
#344 = EDGE_CURVE ( 'NONE', #287, #143, #248, .T. ) ;
#345 = APPLICATION_CONTEXT ( 'configuration controlled 3d designs of mechanical parts and assemblies' ) ;
#346 = EDGE_LOOP ( 'NONE', ( #56, #276 ) ) ;
#347 = MECHANICAL_CONTEXT ( 'NONE', #345, 'mechanical' ) ;
#348 = ORIENTED_EDGE ( 'NONE', *, *, #203, .T. ) ;
#349 = LOCAL_TIME ( 14, 6, 44.00000000000000000, #253 ) ;
#350 = CARTESIAN_POINT ( 'NONE',  ( 0.0000000000000000000, 0.0000000000000000000, 0.0000000000000000000 ) ) ;
#351 = AXIS2_PLACEMENT_3D ( 'NONE', #155, #211, #237 ) ;
#352 = DIRECTION ( 'NONE',  ( -0.0000000000000000000, -1.000000000000000000, -0.0000000000000000000 ) ) ;
#353 = CIRCLE ( 'NONE', #137, 0.1556213345874716500 ) ;
#354 = CARTESIAN_POINT ( 'NONE',  ( 0.0000000000000000000, 0.01889580131148147600, 0.0000000000000000000 ) ) ;
#355 = AXIS2_PLACEMENT_3D ( 'NONE', #161, #166, #11 ) ;
#356 = CONICAL_SURFACE ( 'NONE', #130, 0.1550000000000000000, 0.08726646259970610700 ) ;
#357 = VERTEX_POINT ( 'NONE', #296 ) ;
#358 = CARTESIAN_POINT ( 'NONE',  ( 1.905811692815865100E-017, 0.01319194866017742200, 0.1556213345874717100 ) ) ;
ENDSEC;
END-ISO-10303-21;
